<svg width="50" height="69" viewBox="0 0 50 69" fill="none" xmlns="http://www.w3.org/2000/svg">
<path d="M50 25C50 11.193 38.807 0 25 0C11.193 0 0 11.193 0 25C0 34.9963 5.86899 43.6191 14.3478 47.619C14.3478 50.5815 14.3478 53.9262 14.3478 53.9262H36.2597C36.2597 53.9262 36.3918 50.3863 36.4407 47.2268C44.4914 43.0741 50 34.6832 50 25Z" fill="#93B4FD"/>
<path d="M28.3358 53.8225C28.3358 53.8225 28.3388 53.7175 28.3606 53.514C28.3848 53.2988 28.419 52.9992 28.4626 52.6123C28.5593 51.8202 28.6997 50.6524 28.9209 49.1526C29.1432 47.6533 29.4381 45.8202 29.9153 43.7182C30.4024 41.6215 31.0654 39.2417 32.1836 36.7611C32.7433 35.5219 33.3915 34.2527 34.2396 33.02C34.6755 32.4167 35.2204 31.8293 35.9488 31.4848C36.676 31.1368 37.5861 31.1368 38.3227 31.5621C38.6872 31.7732 38.9963 32.1277 39.1142 32.5512C39.2469 32.9681 39.2039 33.4429 39.0098 33.8339C38.6235 34.6254 37.8869 35.1757 37.0789 35.4983C35.428 36.0763 33.5254 35.9306 31.8816 35.1303C30.232 34.3317 28.915 32.7918 28.3517 30.9593C28.0816 30.0487 27.9348 29.0508 28.2043 28.0752C28.4402 27.1056 29.3833 26.238 30.4756 26.3377C31.017 26.3772 31.5089 26.7476 31.7483 27.2195C31.9984 27.6889 32.0627 28.2439 31.9489 28.7612C31.7076 29.8045 30.9551 30.5848 30.1913 31.2454C28.616 32.5476 26.4697 33.2713 24.3642 32.9363C22.2728 32.6019 20.3943 31.2188 19.5297 29.3327C19.0767 28.4049 18.9676 27.279 19.3604 26.3047C19.558 25.824 19.9396 25.3752 20.4568 25.1988C20.9664 25.0024 21.542 25.0956 21.9962 25.3404C22.4556 25.5828 22.8284 25.9821 23.0513 26.4374C23.2831 26.8915 23.3898 27.3887 23.4323 27.8777C23.5031 28.8573 23.3639 29.831 23.0525 30.7346C22.4426 32.547 21.1486 34.0763 19.5285 34.9268C17.9154 35.7879 16.0417 36.0156 14.3554 35.6381C13.5227 35.4541 12.6704 35.1209 12.1048 34.4444C11.5516 33.7838 11.3959 32.7381 11.9656 32.0363C12.2493 31.6989 12.6757 31.519 13.0892 31.4872C13.505 31.4577 13.9178 31.5414 14.2817 31.719C15.0243 32.0852 15.4772 32.7741 15.8122 33.4347C16.4404 34.7906 16.9452 36.1082 17.4554 37.3662C19.4548 42.4048 20.8732 46.5569 21.8234 49.4339C22.2981 50.873 22.6485 51.9959 22.8838 52.7579C22.9953 53.1307 23.082 53.4197 23.1439 53.6273C23.2011 53.8237 23.2223 53.9263 23.2223 53.9263C23.2223 53.9263 23.1805 53.8296 23.1138 53.6367C23.0448 53.4315 22.9487 53.1454 22.8248 52.7768C22.5659 52.0089 22.1908 50.8972 21.7101 49.4722C20.7258 46.6082 19.2772 42.4702 17.2543 37.4476C16.7406 36.1996 16.2215 34.8667 15.6011 33.5426C15.2761 32.9027 14.8344 32.2604 14.1756 31.9419C13.5368 31.627 12.6403 31.6293 12.1614 32.2002C11.6908 32.7682 11.8135 33.6995 12.3065 34.2775C12.8108 34.8814 13.6082 35.2011 14.4138 35.3757C16.0369 35.7348 17.8458 35.5101 19.3952 34.6779C20.9487 33.8581 22.1902 32.386 22.7747 30.6408C23.0725 29.7727 23.2041 28.8325 23.1356 27.903C23.069 26.9894 22.6862 26.0334 21.8546 25.6064C21.4559 25.3935 20.977 25.3203 20.5594 25.4831C20.1354 25.6276 19.8175 25.9945 19.64 26.4221C19.2908 27.2967 19.3769 28.333 19.8069 29.2053C20.6225 30.99 22.4226 32.3176 24.4114 32.6331C26.4149 32.9534 28.4815 32.2622 29.9955 31.0106C30.7351 30.3766 31.4434 29.6193 31.6516 28.6975C31.7519 28.2475 31.6935 27.7627 31.4812 27.3634C31.2742 26.9629 30.8855 26.6727 30.4449 26.6385C30.0067 26.5949 29.5508 26.76 29.2022 27.0396C28.8489 27.3162 28.6148 27.722 28.4892 28.159C28.2409 29.0413 28.3724 30.0021 28.6313 30.8738C29.1674 32.6302 30.4296 34.1106 32.0061 34.8773C33.5738 35.6505 35.4251 35.7885 36.9804 35.2477C37.7371 34.9516 38.4307 34.4231 38.771 33.7248C39.1325 33.0307 38.8524 32.143 38.1918 31.7821C37.5466 31.4034 36.7073 31.3946 36.0532 31.7089C35.3803 32.0233 34.8577 32.5753 34.4313 33.161C33.5973 34.3612 32.9409 35.6287 32.3812 36.8519C31.2582 39.3084 30.5829 41.6728 30.0822 43.7589C29.5909 45.8509 29.2789 47.6781 29.0389 49.1726C28.8165 50.6606 28.6437 51.8208 28.524 52.6223C28.4673 53.0074 28.4231 53.3053 28.3913 53.52C28.3594 53.7199 28.3358 53.8225 28.3358 53.8225Z" fill="#263238"/>
<path d="M34.8199 57.9826H15.512C14.8685 57.9826 14.3472 57.4612 14.3472 56.8178V56.3235C14.3472 55.6801 14.8685 55.1587 15.512 55.1587H34.8199C35.4634 55.1587 35.9848 55.6801 35.9848 56.3235V56.8178C35.9848 57.4612 35.4634 57.9826 34.8199 57.9826Z" fill="#263238"/>
<path d="M34.5727 59.2153H15.7596C14.9799 59.2153 14.3477 59.8476 14.3477 60.6273C14.3477 61.407 14.9799 62.0392 15.7596 62.0392H17.8245L20.5646 67.2542C20.8778 67.8504 21.4965 68.2244 22.17 68.2244H28.8925C29.5731 68.2244 30.1965 67.8434 30.5067 67.2377L33.169 62.0398H34.5727C35.3524 62.0398 35.9847 61.4076 35.9847 60.6279C35.9847 59.8476 35.3524 59.2153 34.5727 59.2153Z" fill="#263238"/>
<g opacity="0.2">
<path d="M19.3289 4.8148C19.4374 5.26894 17.5424 5.94129 14.9886 7.64696C12.4454 9.31607 9.25764 12.2367 7.33492 16.3629C5.42341 20.4961 5.2506 24.8163 5.61745 27.8366C5.96307 30.8876 6.67259 32.7691 6.2556 32.979C6.07395 33.0728 5.65637 32.7207 5.12084 31.9345C4.58354 31.1507 3.97134 29.9098 3.4889 28.269C3.0035 26.6317 2.69858 24.5828 2.79884 22.2968C2.89439 20.0149 3.43582 17.4994 4.54875 15.0695C5.68587 12.6519 7.25824 10.6154 8.93855 9.06954C10.62 7.51721 12.3812 6.42787 13.9453 5.74136C15.5094 5.0513 16.8529 4.71689 17.7984 4.62193C18.745 4.52403 19.2835 4.61604 19.3289 4.8148Z" fill="white"/>
</g>
<g opacity="0.2">
<path d="M28.4993 4.6384C28.3283 5.4759 26.9258 5.89465 25.3416 5.89347C23.7568 5.87873 22.3585 5.44582 22.1963 4.60596C22.1261 4.19016 22.4198 3.74664 22.9919 3.40043C23.561 3.05423 24.4097 2.81713 25.3575 2.82185C26.3042 2.82715 27.1511 3.0731 27.7161 3.42461C28.2847 3.77672 28.5737 4.22378 28.4993 4.6384Z" fill="white"/>
</g>
<path d="M30.1558 67.6833C30.1334 67.7299 29.6604 67.5134 28.8636 67.2851C28.0685 67.0551 26.9338 66.8493 25.6722 66.8829C24.4101 66.9218 23.2894 67.1931 22.5092 67.4686C21.7265 67.7428 21.2671 67.9858 21.2417 67.9404C21.2246 67.9127 21.6493 67.5995 22.4313 67.2657C23.2092 66.9307 24.3611 66.6157 25.6634 66.5756C26.9656 66.5403 28.1334 66.7886 28.9296 67.0775C29.7294 67.366 30.1717 67.6544 30.1558 67.6833Z" fill="#455A64"/>
<path d="M33.209 62.1036C33.209 62.1885 29.8077 62.2569 25.6131 62.2569C21.4167 62.2569 18.0166 62.1879 18.0166 62.1036C18.0166 62.0186 21.4173 61.9502 25.6131 61.9502C29.8077 61.9496 33.209 62.0186 33.209 62.1036Z" fill="#455A64"/>
<path d="M32.0315 64.3348C32.0339 64.3761 31.3261 64.451 30.179 64.523C29.0318 64.5949 27.4453 64.661 25.6924 64.6858C23.9384 64.7105 22.3507 64.6893 21.2024 64.6498C20.054 64.6103 19.3445 64.5554 19.3457 64.5135C19.3463 64.4705 20.057 64.4487 21.2047 64.4327C22.4451 64.418 23.985 64.3991 25.6883 64.3791C27.391 64.3514 28.931 64.3266 30.1707 64.3065C31.3184 64.29 32.0297 64.2918 32.0315 64.3348Z" fill="#455A64"/>
</svg>
