<svg width="57" height="68" viewBox="0 0 57 68" fill="none" xmlns="http://www.w3.org/2000/svg">
<path d="M52.308 1.72803C52.578 2.18336 52.7368 2.71415 52.7368 3.28332C52.7368 4.97229 51.3682 6.34094 49.6792 6.34094C47.9902 6.34094 46.6216 4.97229 46.6216 3.28332C46.6216 2.71415 46.7791 2.18469 47.0504 1.72803H43.503C43.7731 2.18336 43.9319 2.71415 43.9319 3.28332C43.9319 4.97229 42.5633 6.34094 40.8743 6.34094C39.1853 6.34094 37.8167 4.97229 37.8167 3.28332C37.8167 2.71415 37.9742 2.18469 38.2455 1.72803H34.6982C34.9682 2.18336 35.127 2.71415 35.127 3.28332C35.127 4.97229 33.7584 6.34094 32.0694 6.34094C30.3804 6.34094 29.0117 4.97229 29.0117 3.28332C29.0117 2.71415 29.1693 2.18469 29.4406 1.72803H25.8932C26.1633 2.18336 26.3221 2.71415 26.3221 3.28332C26.3221 4.97229 24.9535 6.34094 23.2645 6.34094C21.5755 6.34094 20.2069 4.97229 20.2069 3.28332C20.2069 2.71415 20.3644 2.18469 20.6357 1.72803H17.0883C17.3584 2.18336 17.5172 2.71415 17.5172 3.28332C17.5172 4.97229 16.1485 6.34094 14.4596 6.34094C12.7706 6.34094 11.4019 4.97229 11.4019 3.28332C11.4019 2.71415 11.5595 2.18469 11.8308 1.72803H8.28342C8.55344 2.18336 8.71229 2.71415 8.71229 3.28332C8.71229 4.97229 7.34364 6.34094 5.65466 6.34094C3.96569 6.34094 2.59704 4.97229 2.59704 3.28332C2.59704 2.71415 2.75454 2.18469 3.02589 1.72803H0.796875V64.968L56.1174 68.0004L53.4794 1.72803H52.308Z" fill="#E0E0E0"/>
<mask id="mask0_1138_3480" style="mask-type:luminance" maskUnits="userSpaceOnUse" x="0" y="0" width="53" height="64">
<path d="M51.5032 0C51.7732 0.455335 51.932 0.986122 51.932 1.55529C51.932 3.24427 50.5634 4.61291 48.8744 4.61291C47.1854 4.61291 45.8168 3.24427 45.8168 1.55529C45.8168 0.986122 45.9743 0.456659 46.2456 0H42.6982C42.9683 0.455335 43.1271 0.986122 43.1271 1.55529C43.1271 3.24427 41.7585 4.61291 40.0695 4.61291C38.3805 4.61291 37.0119 3.24427 37.0119 1.55529C37.0119 0.986122 37.1694 0.456659 37.4407 0H33.8933C34.1634 0.455335 34.3222 0.986122 34.3222 1.55529C34.3222 3.24427 32.9535 4.61291 31.2646 4.61291C29.5756 4.61291 28.2069 3.24427 28.2069 1.55529C28.2069 0.986122 28.3645 0.456659 28.6358 0H25.0884C25.3584 0.455335 25.5173 0.986122 25.5173 1.55529C25.5173 3.24427 24.1486 4.61291 22.4597 4.61291C20.7707 4.61291 19.402 3.24427 19.402 1.55529C19.402 0.986122 19.5595 0.456659 19.8309 0H16.2835C16.5535 0.455335 16.7124 0.986122 16.7124 1.55529C16.7124 3.24427 15.3437 4.61291 13.6548 4.61291C11.9658 4.61291 10.5971 3.24427 10.5971 1.55529C10.5971 0.986122 10.7546 0.456659 11.026 0H7.47862C7.74865 0.455335 7.90747 0.986122 7.90747 1.55529C7.90747 3.24427 6.53882 4.61291 4.84985 4.61291C3.16087 4.61291 1.79222 3.24427 1.79222 1.55529C1.79222 0.986122 1.94975 0.456659 2.22109 0H0V63.2399H52.6825V0H51.5032Z" fill="white"/>
</mask>
<g mask="url(#mask0_1138_3480)">
<path d="M51.5032 0C51.7732 0.455335 51.932 0.986122 51.932 1.55529C51.932 3.24427 50.5634 4.61291 48.8744 4.61291C47.1854 4.61291 45.8168 3.24427 45.8168 1.55529C45.8168 0.986122 45.9743 0.456659 46.2456 0H42.6982C42.9683 0.455335 43.1271 0.986122 43.1271 1.55529C43.1271 3.24427 41.7585 4.61291 40.0695 4.61291C38.3805 4.61291 37.0119 3.24427 37.0119 1.55529C37.0119 0.986122 37.1694 0.456659 37.4407 0H33.8933C34.1634 0.455335 34.3222 0.986122 34.3222 1.55529C34.3222 3.24427 32.9535 4.61291 31.2646 4.61291C29.5756 4.61291 28.2069 3.24427 28.2069 1.55529C28.2069 0.986122 28.3645 0.456659 28.6358 0H25.0884C25.3584 0.455335 25.5173 0.986122 25.5173 1.55529C25.5173 3.24427 24.1486 4.61291 22.4597 4.61291C20.7707 4.61291 19.402 3.24427 19.402 1.55529C19.402 0.986122 19.5595 0.456659 19.8309 0H16.2835C16.5535 0.455335 16.7124 0.986122 16.7124 1.55529C16.7124 3.24427 15.3437 4.61291 13.6548 4.61291C11.9658 4.61291 10.5971 3.24427 10.5971 1.55529C10.5971 0.986122 10.7546 0.456659 11.026 0H7.47862C7.74865 0.455335 7.90747 0.986122 7.90747 1.55529C7.90747 3.24427 6.53882 4.61291 4.84985 4.61291C3.16087 4.61291 1.79222 3.24427 1.79222 1.55529C1.79222 0.986122 1.94975 0.456659 2.22109 0H0V63.2399H52.6825V0H51.5032Z" fill="#F5F5F5"/>
</g>
<mask id="mask1_1138_3480" style="mask-type:luminance" maskUnits="userSpaceOnUse" x="0" y="0" width="53" height="64">
<path d="M51.5032 0C51.7732 0.455335 51.932 0.986122 51.932 1.55529C51.932 3.24427 50.5634 4.61291 48.8744 4.61291C47.1854 4.61291 45.8168 3.24427 45.8168 1.55529C45.8168 0.986122 45.9743 0.456659 46.2456 0H42.6982C42.9683 0.455335 43.1271 0.986122 43.1271 1.55529C43.1271 3.24427 41.7585 4.61291 40.0695 4.61291C38.3805 4.61291 37.0119 3.24427 37.0119 1.55529C37.0119 0.986122 37.1694 0.456659 37.4407 0H33.8933C34.1634 0.455335 34.3222 0.986122 34.3222 1.55529C34.3222 3.24427 32.9535 4.61291 31.2646 4.61291C29.5756 4.61291 28.2069 3.24427 28.2069 1.55529C28.2069 0.986122 28.3645 0.456659 28.6358 0H25.0884C25.3584 0.455335 25.5173 0.986122 25.5173 1.55529C25.5173 3.24427 24.1486 4.61291 22.4597 4.61291C20.7707 4.61291 19.402 3.24427 19.402 1.55529C19.402 0.986122 19.5595 0.456659 19.8309 0H16.2835C16.5535 0.455335 16.7124 0.986122 16.7124 1.55529C16.7124 3.24427 15.3437 4.61291 13.6548 4.61291C11.9658 4.61291 10.5971 3.24427 10.5971 1.55529C10.5971 0.986122 10.7546 0.456659 11.026 0H7.47862C7.74865 0.455335 7.90747 0.986122 7.90747 1.55529C7.90747 3.24427 6.53882 4.61291 4.84985 4.61291C3.16087 4.61291 1.79222 3.24427 1.79222 1.55529C1.79222 0.986122 1.94975 0.456659 2.22109 0H0V63.2399H52.6825V0H51.5032Z" fill="white"/>
</mask>
<g mask="url(#mask1_1138_3480)">
<path d="M5.23655 66.0646C5.04595 66.0672 4.73488 50.742 4.54163 31.8403C4.34837 12.932 4.34573 -2.39188 4.53634 -2.39453C4.72694 -2.39585 5.03799 12.9254 5.23124 31.8337C5.4245 50.7354 5.42716 66.0632 5.23655 66.0646Z" fill="#E0E0E0"/>
</g>
<mask id="mask2_1138_3480" style="mask-type:luminance" maskUnits="userSpaceOnUse" x="0" y="0" width="53" height="64">
<path d="M51.5032 0C51.7732 0.455335 51.932 0.986122 51.932 1.55529C51.932 3.24427 50.5634 4.61291 48.8744 4.61291C47.1854 4.61291 45.8168 3.24427 45.8168 1.55529C45.8168 0.986122 45.9743 0.456659 46.2456 0H42.6982C42.9683 0.455335 43.1271 0.986122 43.1271 1.55529C43.1271 3.24427 41.7585 4.61291 40.0695 4.61291C38.3805 4.61291 37.0119 3.24427 37.0119 1.55529C37.0119 0.986122 37.1694 0.456659 37.4407 0H33.8933C34.1634 0.455335 34.3222 0.986122 34.3222 1.55529C34.3222 3.24427 32.9535 4.61291 31.2646 4.61291C29.5756 4.61291 28.2069 3.24427 28.2069 1.55529C28.2069 0.986122 28.3645 0.456659 28.6358 0H25.0884C25.3584 0.455335 25.5173 0.986122 25.5173 1.55529C25.5173 3.24427 24.1486 4.61291 22.4597 4.61291C20.7707 4.61291 19.402 3.24427 19.402 1.55529C19.402 0.986122 19.5595 0.456659 19.8309 0H16.2835C16.5535 0.455335 16.7124 0.986122 16.7124 1.55529C16.7124 3.24427 15.3437 4.61291 13.6548 4.61291C11.9658 4.61291 10.5971 3.24427 10.5971 1.55529C10.5971 0.986122 10.7546 0.456659 11.026 0H7.47862C7.74865 0.455335 7.90747 0.986122 7.90747 1.55529C7.90747 3.24427 6.53882 4.61291 4.84985 4.61291C3.16087 4.61291 1.79222 3.24427 1.79222 1.55529C1.79222 0.986122 1.94975 0.456659 2.22109 0H0V63.2399H52.6825V0H51.5032Z" fill="white"/>
</mask>
<g mask="url(#mask2_1138_3480)">
<path d="M9.43624 66.0646C9.24564 66.0672 8.93459 50.742 8.74133 31.8403C8.54808 12.932 8.54544 -2.39188 8.73604 -2.39453C8.92665 -2.39585 9.2377 12.9254 9.43095 31.8337C9.6242 50.7354 9.62552 66.0632 9.43624 66.0646Z" fill="#E0E0E0"/>
</g>
<mask id="mask3_1138_3480" style="mask-type:luminance" maskUnits="userSpaceOnUse" x="0" y="0" width="53" height="64">
<path d="M51.5032 0C51.7732 0.455335 51.932 0.986122 51.932 1.55529C51.932 3.24427 50.5634 4.61291 48.8744 4.61291C47.1854 4.61291 45.8168 3.24427 45.8168 1.55529C45.8168 0.986122 45.9743 0.456659 46.2456 0H42.6982C42.9683 0.455335 43.1271 0.986122 43.1271 1.55529C43.1271 3.24427 41.7585 4.61291 40.0695 4.61291C38.3805 4.61291 37.0119 3.24427 37.0119 1.55529C37.0119 0.986122 37.1694 0.456659 37.4407 0H33.8933C34.1634 0.455335 34.3222 0.986122 34.3222 1.55529C34.3222 3.24427 32.9535 4.61291 31.2646 4.61291C29.5756 4.61291 28.2069 3.24427 28.2069 1.55529C28.2069 0.986122 28.3645 0.456659 28.6358 0H25.0884C25.3584 0.455335 25.5173 0.986122 25.5173 1.55529C25.5173 3.24427 24.1486 4.61291 22.4597 4.61291C20.7707 4.61291 19.402 3.24427 19.402 1.55529C19.402 0.986122 19.5595 0.456659 19.8309 0H16.2835C16.5535 0.455335 16.7124 0.986122 16.7124 1.55529C16.7124 3.24427 15.3437 4.61291 13.6548 4.61291C11.9658 4.61291 10.5971 3.24427 10.5971 1.55529C10.5971 0.986122 10.7546 0.456659 11.026 0H7.47862C7.74865 0.455335 7.90747 0.986122 7.90747 1.55529C7.90747 3.24427 6.53882 4.61291 4.84985 4.61291C3.16087 4.61291 1.79222 3.24427 1.79222 1.55529C1.79222 0.986122 1.94975 0.456659 2.22109 0H0V63.2399H52.6825V0H51.5032Z" fill="white"/>
</mask>
<g mask="url(#mask3_1138_3480)">
<path d="M17.9817 66.0646C17.7911 66.0672 17.48 50.742 17.2867 31.8403C17.0935 12.932 17.0908 -2.39188 17.2815 -2.39453C17.4721 -2.39585 17.7831 12.9254 17.9764 31.8337C18.1696 50.7354 18.1723 66.0632 17.9817 66.0646Z" fill="#E0E0E0"/>
</g>
<mask id="mask4_1138_3480" style="mask-type:luminance" maskUnits="userSpaceOnUse" x="0" y="0" width="53" height="64">
<path d="M51.5032 0C51.7732 0.455335 51.932 0.986122 51.932 1.55529C51.932 3.24427 50.5634 4.61291 48.8744 4.61291C47.1854 4.61291 45.8168 3.24427 45.8168 1.55529C45.8168 0.986122 45.9743 0.456659 46.2456 0H42.6982C42.9683 0.455335 43.1271 0.986122 43.1271 1.55529C43.1271 3.24427 41.7585 4.61291 40.0695 4.61291C38.3805 4.61291 37.0119 3.24427 37.0119 1.55529C37.0119 0.986122 37.1694 0.456659 37.4407 0H33.8933C34.1634 0.455335 34.3222 0.986122 34.3222 1.55529C34.3222 3.24427 32.9535 4.61291 31.2646 4.61291C29.5756 4.61291 28.2069 3.24427 28.2069 1.55529C28.2069 0.986122 28.3645 0.456659 28.6358 0H25.0884C25.3584 0.455335 25.5173 0.986122 25.5173 1.55529C25.5173 3.24427 24.1486 4.61291 22.4597 4.61291C20.7707 4.61291 19.402 3.24427 19.402 1.55529C19.402 0.986122 19.5595 0.456659 19.8309 0H16.2835C16.5535 0.455335 16.7124 0.986122 16.7124 1.55529C16.7124 3.24427 15.3437 4.61291 13.6548 4.61291C11.9658 4.61291 10.5971 3.24427 10.5971 1.55529C10.5971 0.986122 10.7546 0.456659 11.026 0H7.47862C7.74865 0.455335 7.90747 0.986122 7.90747 1.55529C7.90747 3.24427 6.53882 4.61291 4.84985 4.61291C3.16087 4.61291 1.79222 3.24427 1.79222 1.55529C1.79222 0.986122 1.94975 0.456659 2.22109 0H0V63.2399H52.6825V0H51.5032Z" fill="white"/>
</mask>
<g mask="url(#mask4_1138_3480)">
<path d="M26.5271 66.0646C26.3365 66.0672 26.0254 50.742 25.8322 31.8403C25.6389 12.932 25.6363 -2.39188 25.8269 -2.39453C26.0175 -2.39585 26.3285 12.9254 26.5218 31.8337C26.715 50.7354 26.7177 66.0632 26.5271 66.0646Z" fill="#E0E0E0"/>
</g>
<mask id="mask5_1138_3480" style="mask-type:luminance" maskUnits="userSpaceOnUse" x="0" y="0" width="53" height="64">
<path d="M51.5032 0C51.7732 0.455335 51.932 0.986122 51.932 1.55529C51.932 3.24427 50.5634 4.61291 48.8744 4.61291C47.1854 4.61291 45.8168 3.24427 45.8168 1.55529C45.8168 0.986122 45.9743 0.456659 46.2456 0H42.6982C42.9683 0.455335 43.1271 0.986122 43.1271 1.55529C43.1271 3.24427 41.7585 4.61291 40.0695 4.61291C38.3805 4.61291 37.0119 3.24427 37.0119 1.55529C37.0119 0.986122 37.1694 0.456659 37.4407 0H33.8933C34.1634 0.455335 34.3222 0.986122 34.3222 1.55529C34.3222 3.24427 32.9535 4.61291 31.2646 4.61291C29.5756 4.61291 28.2069 3.24427 28.2069 1.55529C28.2069 0.986122 28.3645 0.456659 28.6358 0H25.0884C25.3584 0.455335 25.5173 0.986122 25.5173 1.55529C25.5173 3.24427 24.1486 4.61291 22.4597 4.61291C20.7707 4.61291 19.402 3.24427 19.402 1.55529C19.402 0.986122 19.5595 0.456659 19.8309 0H16.2835C16.5535 0.455335 16.7124 0.986122 16.7124 1.55529C16.7124 3.24427 15.3437 4.61291 13.6548 4.61291C11.9658 4.61291 10.5971 3.24427 10.5971 1.55529C10.5971 0.986122 10.7546 0.456659 11.026 0H7.47862C7.74865 0.455335 7.90747 0.986122 7.90747 1.55529C7.90747 3.24427 6.53882 4.61291 4.84985 4.61291C3.16087 4.61291 1.79222 3.24427 1.79222 1.55529C1.79222 0.986122 1.94975 0.456659 2.22109 0H0V63.2399H52.6825V0H51.5032Z" fill="white"/>
</mask>
<g mask="url(#mask5_1138_3480)">
<path d="M35.0725 66.0646C34.8819 66.0672 34.5708 50.742 34.3776 31.8403C34.1843 12.932 34.1817 -2.39188 34.3723 -2.39453C34.5629 -2.39585 34.8739 12.9254 35.0672 31.8337C35.2604 50.7354 35.2631 66.0632 35.0725 66.0646Z" fill="#E0E0E0"/>
</g>
<mask id="mask6_1138_3480" style="mask-type:luminance" maskUnits="userSpaceOnUse" x="0" y="0" width="53" height="64">
<path d="M51.5032 0C51.7732 0.455335 51.932 0.986122 51.932 1.55529C51.932 3.24427 50.5634 4.61291 48.8744 4.61291C47.1854 4.61291 45.8168 3.24427 45.8168 1.55529C45.8168 0.986122 45.9743 0.456659 46.2456 0H42.6982C42.9683 0.455335 43.1271 0.986122 43.1271 1.55529C43.1271 3.24427 41.7585 4.61291 40.0695 4.61291C38.3805 4.61291 37.0119 3.24427 37.0119 1.55529C37.0119 0.986122 37.1694 0.456659 37.4407 0H33.8933C34.1634 0.455335 34.3222 0.986122 34.3222 1.55529C34.3222 3.24427 32.9535 4.61291 31.2646 4.61291C29.5756 4.61291 28.2069 3.24427 28.2069 1.55529C28.2069 0.986122 28.3645 0.456659 28.6358 0H25.0884C25.3584 0.455335 25.5173 0.986122 25.5173 1.55529C25.5173 3.24427 24.1486 4.61291 22.4597 4.61291C20.7707 4.61291 19.402 3.24427 19.402 1.55529C19.402 0.986122 19.5595 0.456659 19.8309 0H16.2835C16.5535 0.455335 16.7124 0.986122 16.7124 1.55529C16.7124 3.24427 15.3437 4.61291 13.6548 4.61291C11.9658 4.61291 10.5971 3.24427 10.5971 1.55529C10.5971 0.986122 10.7546 0.456659 11.026 0H7.47862C7.74865 0.455335 7.90747 0.986122 7.90747 1.55529C7.90747 3.24427 6.53882 4.61291 4.84985 4.61291C3.16087 4.61291 1.79222 3.24427 1.79222 1.55529C1.79222 0.986122 1.94975 0.456659 2.22109 0H0V63.2399H52.6825V0H51.5032Z" fill="white"/>
</mask>
<g mask="url(#mask6_1138_3480)">
<path d="M43.1814 66.0646C42.9908 66.0672 42.6797 50.742 42.4865 31.8403C42.2932 12.932 42.2906 -2.39188 42.4812 -2.39453C42.6718 -2.39585 42.9828 12.9254 43.1761 31.8337C43.3693 50.7354 43.372 66.0632 43.1814 66.0646Z" fill="#E0E0E0"/>
</g>
<mask id="mask7_1138_3480" style="mask-type:luminance" maskUnits="userSpaceOnUse" x="0" y="0" width="53" height="64">
<path d="M51.5032 0C51.7732 0.455335 51.932 0.986122 51.932 1.55529C51.932 3.24427 50.5634 4.61291 48.8744 4.61291C47.1854 4.61291 45.8168 3.24427 45.8168 1.55529C45.8168 0.986122 45.9743 0.456659 46.2456 0H42.6982C42.9683 0.455335 43.1271 0.986122 43.1271 1.55529C43.1271 3.24427 41.7585 4.61291 40.0695 4.61291C38.3805 4.61291 37.0119 3.24427 37.0119 1.55529C37.0119 0.986122 37.1694 0.456659 37.4407 0H33.8933C34.1634 0.455335 34.3222 0.986122 34.3222 1.55529C34.3222 3.24427 32.9535 4.61291 31.2646 4.61291C29.5756 4.61291 28.2069 3.24427 28.2069 1.55529C28.2069 0.986122 28.3645 0.456659 28.6358 0H25.0884C25.3584 0.455335 25.5173 0.986122 25.5173 1.55529C25.5173 3.24427 24.1486 4.61291 22.4597 4.61291C20.7707 4.61291 19.402 3.24427 19.402 1.55529C19.402 0.986122 19.5595 0.456659 19.8309 0H16.2835C16.5535 0.455335 16.7124 0.986122 16.7124 1.55529C16.7124 3.24427 15.3437 4.61291 13.6548 4.61291C11.9658 4.61291 10.5971 3.24427 10.5971 1.55529C10.5971 0.986122 10.7546 0.456659 11.026 0H7.47862C7.74865 0.455335 7.90747 0.986122 7.90747 1.55529C7.90747 3.24427 6.53882 4.61291 4.84985 4.61291C3.16087 4.61291 1.79222 3.24427 1.79222 1.55529C1.79222 0.986122 1.94975 0.456659 2.22109 0H0V63.2399H52.6825V0H51.5032Z" fill="white"/>
</mask>
<g mask="url(#mask7_1138_3480)">
<path d="M51.2917 66.0646C51.1011 66.0672 50.7901 50.742 50.5968 31.8403C50.4036 12.932 50.4009 -2.39188 50.5915 -2.39453C50.7821 -2.39585 51.0932 12.9254 51.2864 31.8337C51.4783 50.7354 51.481 66.0632 51.2917 66.0646Z" fill="#E0E0E0"/>
</g>
<mask id="mask8_1138_3480" style="mask-type:luminance" maskUnits="userSpaceOnUse" x="0" y="0" width="53" height="64">
<path d="M51.5032 0C51.7732 0.455335 51.932 0.986122 51.932 1.55529C51.932 3.24427 50.5634 4.61291 48.8744 4.61291C47.1854 4.61291 45.8168 3.24427 45.8168 1.55529C45.8168 0.986122 45.9743 0.456659 46.2456 0H42.6982C42.9683 0.455335 43.1271 0.986122 43.1271 1.55529C43.1271 3.24427 41.7585 4.61291 40.0695 4.61291C38.3805 4.61291 37.0119 3.24427 37.0119 1.55529C37.0119 0.986122 37.1694 0.456659 37.4407 0H33.8933C34.1634 0.455335 34.3222 0.986122 34.3222 1.55529C34.3222 3.24427 32.9535 4.61291 31.2646 4.61291C29.5756 4.61291 28.2069 3.24427 28.2069 1.55529C28.2069 0.986122 28.3645 0.456659 28.6358 0H25.0884C25.3584 0.455335 25.5173 0.986122 25.5173 1.55529C25.5173 3.24427 24.1486 4.61291 22.4597 4.61291C20.7707 4.61291 19.402 3.24427 19.402 1.55529C19.402 0.986122 19.5595 0.456659 19.8309 0H16.2835C16.5535 0.455335 16.7124 0.986122 16.7124 1.55529C16.7124 3.24427 15.3437 4.61291 13.6548 4.61291C11.9658 4.61291 10.5971 3.24427 10.5971 1.55529C10.5971 0.986122 10.7546 0.456659 11.026 0H7.47862C7.74865 0.455335 7.90747 0.986122 7.90747 1.55529C7.90747 3.24427 6.53882 4.61291 4.84985 4.61291C3.16087 4.61291 1.79222 3.24427 1.79222 1.55529C1.79222 0.986122 1.94975 0.456659 2.22109 0H0V63.2399H52.6825V0H51.5032Z" fill="white"/>
</mask>
<g mask="url(#mask8_1138_3480)">
<path d="M13.6916 65.9786C13.501 65.9799 13.19 50.6561 12.9967 31.7544C12.8035 12.8461 12.8008 -2.47782 12.9914 -2.48047C13.182 -2.48312 13.4931 12.8394 13.6863 31.7464C13.8796 50.6494 13.8822 65.976 13.6916 65.9786Z" fill="#E0E0E0"/>
</g>
<mask id="mask9_1138_3480" style="mask-type:luminance" maskUnits="userSpaceOnUse" x="0" y="0" width="53" height="64">
<path d="M51.5032 0C51.7732 0.455335 51.932 0.986122 51.932 1.55529C51.932 3.24427 50.5634 4.61291 48.8744 4.61291C47.1854 4.61291 45.8168 3.24427 45.8168 1.55529C45.8168 0.986122 45.9743 0.456659 46.2456 0H42.6982C42.9683 0.455335 43.1271 0.986122 43.1271 1.55529C43.1271 3.24427 41.7585 4.61291 40.0695 4.61291C38.3805 4.61291 37.0119 3.24427 37.0119 1.55529C37.0119 0.986122 37.1694 0.456659 37.4407 0H33.8933C34.1634 0.455335 34.3222 0.986122 34.3222 1.55529C34.3222 3.24427 32.9535 4.61291 31.2646 4.61291C29.5756 4.61291 28.2069 3.24427 28.2069 1.55529C28.2069 0.986122 28.3645 0.456659 28.6358 0H25.0884C25.3584 0.455335 25.5173 0.986122 25.5173 1.55529C25.5173 3.24427 24.1486 4.61291 22.4597 4.61291C20.7707 4.61291 19.402 3.24427 19.402 1.55529C19.402 0.986122 19.5595 0.456659 19.8309 0H16.2835C16.5535 0.455335 16.7124 0.986122 16.7124 1.55529C16.7124 3.24427 15.3437 4.61291 13.6548 4.61291C11.9658 4.61291 10.5971 3.24427 10.5971 1.55529C10.5971 0.986122 10.7546 0.456659 11.026 0H7.47862C7.74865 0.455335 7.90747 0.986122 7.90747 1.55529C7.90747 3.24427 6.53882 4.61291 4.84985 4.61291C3.16087 4.61291 1.79222 3.24427 1.79222 1.55529C1.79222 0.986122 1.94975 0.456659 2.22109 0H0V63.2399H52.6825V0H51.5032Z" fill="white"/>
</mask>
<g mask="url(#mask9_1138_3480)">
<path d="M22.1487 65.8927C21.958 65.8953 21.647 50.5701 21.4537 31.6684C21.2605 12.7601 21.2578 -2.56376 21.4484 -2.56641C21.639 -2.56773 21.9501 12.7535 22.1434 31.6605C22.3366 50.5622 22.3393 65.89 22.1487 65.8927Z" fill="#E0E0E0"/>
</g>
<mask id="mask10_1138_3480" style="mask-type:luminance" maskUnits="userSpaceOnUse" x="0" y="0" width="53" height="64">
<path d="M51.5032 0C51.7732 0.455335 51.932 0.986122 51.932 1.55529C51.932 3.24427 50.5634 4.61291 48.8744 4.61291C47.1854 4.61291 45.8168 3.24427 45.8168 1.55529C45.8168 0.986122 45.9743 0.456659 46.2456 0H42.6982C42.9683 0.455335 43.1271 0.986122 43.1271 1.55529C43.1271 3.24427 41.7585 4.61291 40.0695 4.61291C38.3805 4.61291 37.0119 3.24427 37.0119 1.55529C37.0119 0.986122 37.1694 0.456659 37.4407 0H33.8933C34.1634 0.455335 34.3222 0.986122 34.3222 1.55529C34.3222 3.24427 32.9535 4.61291 31.2646 4.61291C29.5756 4.61291 28.2069 3.24427 28.2069 1.55529C28.2069 0.986122 28.3645 0.456659 28.6358 0H25.0884C25.3584 0.455335 25.5173 0.986122 25.5173 1.55529C25.5173 3.24427 24.1486 4.61291 22.4597 4.61291C20.7707 4.61291 19.402 3.24427 19.402 1.55529C19.402 0.986122 19.5595 0.456659 19.8309 0H16.2835C16.5535 0.455335 16.7124 0.986122 16.7124 1.55529C16.7124 3.24427 15.3437 4.61291 13.6548 4.61291C11.9658 4.61291 10.5971 3.24427 10.5971 1.55529C10.5971 0.986122 10.7546 0.456659 11.026 0H7.47862C7.74865 0.455335 7.90747 0.986122 7.90747 1.55529C7.90747 3.24427 6.53882 4.61291 4.84985 4.61291C3.16087 4.61291 1.79222 3.24427 1.79222 1.55529C1.79222 0.986122 1.94975 0.456659 2.22109 0H0V63.2399H52.6825V0H51.5032Z" fill="white"/>
</mask>
<g mask="url(#mask10_1138_3480)">
<path d="M30.6042 65.8053C30.4136 65.8079 30.1026 50.4827 29.9093 31.581C29.7161 12.6727 29.7134 -2.65116 29.904 -2.65381C30.0946 -2.65646 30.4057 12.6661 30.5989 31.5731C30.7922 50.4761 30.7948 65.8039 30.6042 65.8053Z" fill="#E0E0E0"/>
</g>
<mask id="mask11_1138_3480" style="mask-type:luminance" maskUnits="userSpaceOnUse" x="0" y="0" width="53" height="64">
<path d="M51.5032 0C51.7732 0.455335 51.932 0.986122 51.932 1.55529C51.932 3.24427 50.5634 4.61291 48.8744 4.61291C47.1854 4.61291 45.8168 3.24427 45.8168 1.55529C45.8168 0.986122 45.9743 0.456659 46.2456 0H42.6982C42.9683 0.455335 43.1271 0.986122 43.1271 1.55529C43.1271 3.24427 41.7585 4.61291 40.0695 4.61291C38.3805 4.61291 37.0119 3.24427 37.0119 1.55529C37.0119 0.986122 37.1694 0.456659 37.4407 0H33.8933C34.1634 0.455335 34.3222 0.986122 34.3222 1.55529C34.3222 3.24427 32.9535 4.61291 31.2646 4.61291C29.5756 4.61291 28.2069 3.24427 28.2069 1.55529C28.2069 0.986122 28.3645 0.456659 28.6358 0H25.0884C25.3584 0.455335 25.5173 0.986122 25.5173 1.55529C25.5173 3.24427 24.1486 4.61291 22.4597 4.61291C20.7707 4.61291 19.402 3.24427 19.402 1.55529C19.402 0.986122 19.5595 0.456659 19.8309 0H16.2835C16.5535 0.455335 16.7124 0.986122 16.7124 1.55529C16.7124 3.24427 15.3437 4.61291 13.6548 4.61291C11.9658 4.61291 10.5971 3.24427 10.5971 1.55529C10.5971 0.986122 10.7546 0.456659 11.026 0H7.47862C7.74865 0.455335 7.90747 0.986122 7.90747 1.55529C7.90747 3.24427 6.53882 4.61291 4.84985 4.61291C3.16087 4.61291 1.79222 3.24427 1.79222 1.55529C1.79222 0.986122 1.94975 0.456659 2.22109 0H0V63.2399H52.6825V0H51.5032Z" fill="white"/>
</mask>
<g mask="url(#mask11_1138_3480)">
<path d="M39.0603 65.7193C38.8697 65.7207 38.5586 50.3968 38.3654 31.4951C38.1721 12.5868 38.1695 -2.7371 38.3601 -2.73975C38.5507 -2.74107 38.8617 12.5801 39.055 31.4885C39.2482 50.3902 39.2495 65.718 39.0603 65.7193Z" fill="#E0E0E0"/>
</g>
<mask id="mask12_1138_3480" style="mask-type:luminance" maskUnits="userSpaceOnUse" x="0" y="0" width="53" height="64">
<path d="M51.5032 0C51.7732 0.455335 51.932 0.986122 51.932 1.55529C51.932 3.24427 50.5634 4.61291 48.8744 4.61291C47.1854 4.61291 45.8168 3.24427 45.8168 1.55529C45.8168 0.986122 45.9743 0.456659 46.2456 0H42.6982C42.9683 0.455335 43.1271 0.986122 43.1271 1.55529C43.1271 3.24427 41.7585 4.61291 40.0695 4.61291C38.3805 4.61291 37.0119 3.24427 37.0119 1.55529C37.0119 0.986122 37.1694 0.456659 37.4407 0H33.8933C34.1634 0.455335 34.3222 0.986122 34.3222 1.55529C34.3222 3.24427 32.9535 4.61291 31.2646 4.61291C29.5756 4.61291 28.2069 3.24427 28.2069 1.55529C28.2069 0.986122 28.3645 0.456659 28.6358 0H25.0884C25.3584 0.455335 25.5173 0.986122 25.5173 1.55529C25.5173 3.24427 24.1486 4.61291 22.4597 4.61291C20.7707 4.61291 19.402 3.24427 19.402 1.55529C19.402 0.986122 19.5595 0.456659 19.8309 0H16.2835C16.5535 0.455335 16.7124 0.986122 16.7124 1.55529C16.7124 3.24427 15.3437 4.61291 13.6548 4.61291C11.9658 4.61291 10.5971 3.24427 10.5971 1.55529C10.5971 0.986122 10.7546 0.456659 11.026 0H7.47862C7.74865 0.455335 7.90747 0.986122 7.90747 1.55529C7.90747 3.24427 6.53882 4.61291 4.84985 4.61291C3.16087 4.61291 1.79222 3.24427 1.79222 1.55529C1.79222 0.986122 1.94975 0.456659 2.22109 0H0V63.2399H52.6825V0H51.5032Z" fill="white"/>
</mask>
<g mask="url(#mask12_1138_3480)">
<path d="M47.1662 66.1515C46.9756 66.1528 46.6646 50.8289 46.4713 31.9272C46.2781 13.0189 46.2754 -2.30497 46.466 -2.30762C46.6566 -2.30894 46.9677 13.0123 47.1609 31.9193C47.3542 50.821 47.3555 66.1488 47.1662 66.1515Z" fill="#E0E0E0"/>
</g>
<mask id="mask13_1138_3480" style="mask-type:luminance" maskUnits="userSpaceOnUse" x="0" y="0" width="53" height="64">
<path d="M51.5032 0C51.7732 0.455335 51.932 0.986122 51.932 1.55529C51.932 3.24427 50.5634 4.61291 48.8744 4.61291C47.1854 4.61291 45.8168 3.24427 45.8168 1.55529C45.8168 0.986122 45.9743 0.456659 46.2456 0H42.6982C42.9683 0.455335 43.1271 0.986122 43.1271 1.55529C43.1271 3.24427 41.7585 4.61291 40.0695 4.61291C38.3805 4.61291 37.0119 3.24427 37.0119 1.55529C37.0119 0.986122 37.1694 0.456659 37.4407 0H33.8933C34.1634 0.455335 34.3222 0.986122 34.3222 1.55529C34.3222 3.24427 32.9535 4.61291 31.2646 4.61291C29.5756 4.61291 28.2069 3.24427 28.2069 1.55529C28.2069 0.986122 28.3645 0.456659 28.6358 0H25.0884C25.3584 0.455335 25.5173 0.986122 25.5173 1.55529C25.5173 3.24427 24.1486 4.61291 22.4597 4.61291C20.7707 4.61291 19.402 3.24427 19.402 1.55529C19.402 0.986122 19.5595 0.456659 19.8309 0H16.2835C16.5535 0.455335 16.7124 0.986122 16.7124 1.55529C16.7124 3.24427 15.3437 4.61291 13.6548 4.61291C11.9658 4.61291 10.5971 3.24427 10.5971 1.55529C10.5971 0.986122 10.7546 0.456659 11.026 0H7.47862C7.74865 0.455335 7.90747 0.986122 7.90747 1.55529C7.90747 3.24427 6.53882 4.61291 4.84985 4.61291C3.16087 4.61291 1.79222 3.24427 1.79222 1.55529C1.79222 0.986122 1.94975 0.456659 2.22109 0H0V63.2399H52.6825V0H51.5032Z" fill="white"/>
</mask>
<g mask="url(#mask13_1138_3480)">
<path d="M65.0455 57.5227C65.0468 57.7133 49.723 58.0204 30.8213 58.2097C11.9129 58.3989 -3.41093 58.3976 -3.41357 58.207C-3.4149 58.0164 11.9063 57.7093 30.8146 57.52C49.715 57.3321 65.0429 57.3321 65.0455 57.5227Z" fill="#E0E0E0"/>
</g>
<mask id="mask14_1138_3480" style="mask-type:luminance" maskUnits="userSpaceOnUse" x="0" y="0" width="53" height="64">
<path d="M51.5032 0C51.7732 0.455335 51.932 0.986122 51.932 1.55529C51.932 3.24427 50.5634 4.61291 48.8744 4.61291C47.1854 4.61291 45.8168 3.24427 45.8168 1.55529C45.8168 0.986122 45.9743 0.456659 46.2456 0H42.6982C42.9683 0.455335 43.1271 0.986122 43.1271 1.55529C43.1271 3.24427 41.7585 4.61291 40.0695 4.61291C38.3805 4.61291 37.0119 3.24427 37.0119 1.55529C37.0119 0.986122 37.1694 0.456659 37.4407 0H33.8933C34.1634 0.455335 34.3222 0.986122 34.3222 1.55529C34.3222 3.24427 32.9535 4.61291 31.2646 4.61291C29.5756 4.61291 28.2069 3.24427 28.2069 1.55529C28.2069 0.986122 28.3645 0.456659 28.6358 0H25.0884C25.3584 0.455335 25.5173 0.986122 25.5173 1.55529C25.5173 3.24427 24.1486 4.61291 22.4597 4.61291C20.7707 4.61291 19.402 3.24427 19.402 1.55529C19.402 0.986122 19.5595 0.456659 19.8309 0H16.2835C16.5535 0.455335 16.7124 0.986122 16.7124 1.55529C16.7124 3.24427 15.3437 4.61291 13.6548 4.61291C11.9658 4.61291 10.5971 3.24427 10.5971 1.55529C10.5971 0.986122 10.7546 0.456659 11.026 0H7.47862C7.74865 0.455335 7.90747 0.986122 7.90747 1.55529C7.90747 3.24427 6.53882 4.61291 4.84985 4.61291C3.16087 4.61291 1.79222 3.24427 1.79222 1.55529C1.79222 0.986122 1.94975 0.456659 2.22109 0H0V63.2399H52.6825V0H51.5032Z" fill="white"/>
</mask>
<g mask="url(#mask14_1138_3480)">
<path d="M65.4 61.8474C65.4013 62.038 50.0775 62.3451 31.1758 62.5344C12.2675 62.7236 -3.05643 62.7223 -3.05908 62.5317C-3.06041 62.3411 12.2608 62.034 31.1691 61.8448C50.0695 61.6555 65.3974 61.6568 65.4 61.8474Z" fill="#E0E0E0"/>
</g>
<mask id="mask15_1138_3480" style="mask-type:luminance" maskUnits="userSpaceOnUse" x="0" y="0" width="53" height="64">
<path d="M51.5032 0C51.7732 0.455335 51.932 0.986122 51.932 1.55529C51.932 3.24427 50.5634 4.61291 48.8744 4.61291C47.1854 4.61291 45.8168 3.24427 45.8168 1.55529C45.8168 0.986122 45.9743 0.456659 46.2456 0H42.6982C42.9683 0.455335 43.1271 0.986122 43.1271 1.55529C43.1271 3.24427 41.7585 4.61291 40.0695 4.61291C38.3805 4.61291 37.0119 3.24427 37.0119 1.55529C37.0119 0.986122 37.1694 0.456659 37.4407 0H33.8933C34.1634 0.455335 34.3222 0.986122 34.3222 1.55529C34.3222 3.24427 32.9535 4.61291 31.2646 4.61291C29.5756 4.61291 28.2069 3.24427 28.2069 1.55529C28.2069 0.986122 28.3645 0.456659 28.6358 0H25.0884C25.3584 0.455335 25.5173 0.986122 25.5173 1.55529C25.5173 3.24427 24.1486 4.61291 22.4597 4.61291C20.7707 4.61291 19.402 3.24427 19.402 1.55529C19.402 0.986122 19.5595 0.456659 19.8309 0H16.2835C16.5535 0.455335 16.7124 0.986122 16.7124 1.55529C16.7124 3.24427 15.3437 4.61291 13.6548 4.61291C11.9658 4.61291 10.5971 3.24427 10.5971 1.55529C10.5971 0.986122 10.7546 0.456659 11.026 0H7.47862C7.74865 0.455335 7.90747 0.986122 7.90747 1.55529C7.90747 3.24427 6.53882 4.61291 4.84985 4.61291C3.16087 4.61291 1.79222 3.24427 1.79222 1.55529C1.79222 0.986122 1.94975 0.456659 2.22109 0H0V63.2399H52.6825V0H51.5032Z" fill="white"/>
</mask>
<g mask="url(#mask15_1138_3480)">
<path d="M64.9605 49.0676C64.9619 49.2582 49.638 49.5653 30.7363 49.7546C11.828 49.9439 -3.49589 49.9425 -3.49853 49.7519C-3.50118 49.5613 11.8214 49.2542 30.7284 49.065C49.6301 48.8757 64.9579 48.877 64.9605 49.0676Z" fill="#E0E0E0"/>
</g>
<mask id="mask16_1138_3480" style="mask-type:luminance" maskUnits="userSpaceOnUse" x="0" y="0" width="53" height="64">
<path d="M51.5032 0C51.7732 0.455335 51.932 0.986122 51.932 1.55529C51.932 3.24427 50.5634 4.61291 48.8744 4.61291C47.1854 4.61291 45.8168 3.24427 45.8168 1.55529C45.8168 0.986122 45.9743 0.456659 46.2456 0H42.6982C42.9683 0.455335 43.1271 0.986122 43.1271 1.55529C43.1271 3.24427 41.7585 4.61291 40.0695 4.61291C38.3805 4.61291 37.0119 3.24427 37.0119 1.55529C37.0119 0.986122 37.1694 0.456659 37.4407 0H33.8933C34.1634 0.455335 34.3222 0.986122 34.3222 1.55529C34.3222 3.24427 32.9535 4.61291 31.2646 4.61291C29.5756 4.61291 28.2069 3.24427 28.2069 1.55529C28.2069 0.986122 28.3645 0.456659 28.6358 0H25.0884C25.3584 0.455335 25.5173 0.986122 25.5173 1.55529C25.5173 3.24427 24.1486 4.61291 22.4597 4.61291C20.7707 4.61291 19.402 3.24427 19.402 1.55529C19.402 0.986122 19.5595 0.456659 19.8309 0H16.2835C16.5535 0.455335 16.7124 0.986122 16.7124 1.55529C16.7124 3.24427 15.3437 4.61291 13.6548 4.61291C11.9658 4.61291 10.5971 3.24427 10.5971 1.55529C10.5971 0.986122 10.7546 0.456659 11.026 0H7.47862C7.74865 0.455335 7.90747 0.986122 7.90747 1.55529C7.90747 3.24427 6.53882 4.61291 4.84985 4.61291C3.16087 4.61291 1.79222 3.24427 1.79222 1.55529C1.79222 0.986122 1.94975 0.456659 2.22109 0H0V63.2399H52.6825V0H51.5032Z" fill="white"/>
</mask>
<g mask="url(#mask16_1138_3480)">
<path d="M64.8756 40.6111C64.8769 40.8017 49.553 41.1088 30.6513 41.298C11.743 41.4873 -3.58085 41.486 -3.5835 41.2954C-3.58482 41.1048 11.7364 40.7977 30.6447 40.6084C49.5464 40.4204 64.8743 40.4218 64.8756 40.6111Z" fill="#E0E0E0"/>
</g>
<mask id="mask17_1138_3480" style="mask-type:luminance" maskUnits="userSpaceOnUse" x="0" y="0" width="53" height="64">
<path d="M51.5032 0C51.7732 0.455335 51.932 0.986122 51.932 1.55529C51.932 3.24427 50.5634 4.61291 48.8744 4.61291C47.1854 4.61291 45.8168 3.24427 45.8168 1.55529C45.8168 0.986122 45.9743 0.456659 46.2456 0H42.6982C42.9683 0.455335 43.1271 0.986122 43.1271 1.55529C43.1271 3.24427 41.7585 4.61291 40.0695 4.61291C38.3805 4.61291 37.0119 3.24427 37.0119 1.55529C37.0119 0.986122 37.1694 0.456659 37.4407 0H33.8933C34.1634 0.455335 34.3222 0.986122 34.3222 1.55529C34.3222 3.24427 32.9535 4.61291 31.2646 4.61291C29.5756 4.61291 28.2069 3.24427 28.2069 1.55529C28.2069 0.986122 28.3645 0.456659 28.6358 0H25.0884C25.3584 0.455335 25.5173 0.986122 25.5173 1.55529C25.5173 3.24427 24.1486 4.61291 22.4597 4.61291C20.7707 4.61291 19.402 3.24427 19.402 1.55529C19.402 0.986122 19.5595 0.456659 19.8309 0H16.2835C16.5535 0.455335 16.7124 0.986122 16.7124 1.55529C16.7124 3.24427 15.3437 4.61291 13.6548 4.61291C11.9658 4.61291 10.5971 3.24427 10.5971 1.55529C10.5971 0.986122 10.7546 0.456659 11.026 0H7.47862C7.74865 0.455335 7.90747 0.986122 7.90747 1.55529C7.90747 3.24427 6.53882 4.61291 4.84985 4.61291C3.16087 4.61291 1.79222 3.24427 1.79222 1.55529C1.79222 0.986122 1.94975 0.456659 2.22109 0H0V63.2399H52.6825V0H51.5032Z" fill="white"/>
</mask>
<g mask="url(#mask17_1138_3480)">
<path d="M64.7916 32.1555C64.7943 32.3461 49.469 32.6532 30.5674 32.8425C11.659 33.0318 -3.66483 33.0305 -3.66748 32.8398C-3.6688 32.6492 11.6524 32.3421 30.5607 32.1529C49.4624 31.9636 64.7903 31.9649 64.7916 32.1555Z" fill="#E0E0E0"/>
</g>
<mask id="mask18_1138_3480" style="mask-type:luminance" maskUnits="userSpaceOnUse" x="0" y="0" width="53" height="64">
<path d="M51.5032 0C51.7732 0.455335 51.932 0.986122 51.932 1.55529C51.932 3.24427 50.5634 4.61291 48.8744 4.61291C47.1854 4.61291 45.8168 3.24427 45.8168 1.55529C45.8168 0.986122 45.9743 0.456659 46.2456 0H42.6982C42.9683 0.455335 43.1271 0.986122 43.1271 1.55529C43.1271 3.24427 41.7585 4.61291 40.0695 4.61291C38.3805 4.61291 37.0119 3.24427 37.0119 1.55529C37.0119 0.986122 37.1694 0.456659 37.4407 0H33.8933C34.1634 0.455335 34.3222 0.986122 34.3222 1.55529C34.3222 3.24427 32.9535 4.61291 31.2646 4.61291C29.5756 4.61291 28.2069 3.24427 28.2069 1.55529C28.2069 0.986122 28.3645 0.456659 28.6358 0H25.0884C25.3584 0.455335 25.5173 0.986122 25.5173 1.55529C25.5173 3.24427 24.1486 4.61291 22.4597 4.61291C20.7707 4.61291 19.402 3.24427 19.402 1.55529C19.402 0.986122 19.5595 0.456659 19.8309 0H16.2835C16.5535 0.455335 16.7124 0.986122 16.7124 1.55529C16.7124 3.24427 15.3437 4.61291 13.6548 4.61291C11.9658 4.61291 10.5971 3.24427 10.5971 1.55529C10.5971 0.986122 10.7546 0.456659 11.026 0H7.47862C7.74865 0.455335 7.90747 0.986122 7.90747 1.55529C7.90747 3.24427 6.53882 4.61291 4.84985 4.61291C3.16087 4.61291 1.79222 3.24427 1.79222 1.55529C1.79222 0.986122 1.94975 0.456659 2.22109 0H0V63.2399H52.6825V0H51.5032Z" fill="white"/>
</mask>
<g mask="url(#mask18_1138_3480)">
<path d="M64.7066 23.6999C64.7079 23.8905 49.3841 24.1976 30.4824 24.3869C11.5741 24.5762 -3.74979 24.5749 -3.75244 24.3843C-3.75376 24.1937 11.5674 23.8866 30.4744 23.6973C49.3775 23.508 64.7053 23.5093 64.7066 23.6999Z" fill="#E0E0E0"/>
</g>
<mask id="mask19_1138_3480" style="mask-type:luminance" maskUnits="userSpaceOnUse" x="0" y="0" width="53" height="64">
<path d="M51.5032 0C51.7732 0.455335 51.932 0.986122 51.932 1.55529C51.932 3.24427 50.5634 4.61291 48.8744 4.61291C47.1854 4.61291 45.8168 3.24427 45.8168 1.55529C45.8168 0.986122 45.9743 0.456659 46.2456 0H42.6982C42.9683 0.455335 43.1271 0.986122 43.1271 1.55529C43.1271 3.24427 41.7585 4.61291 40.0695 4.61291C38.3805 4.61291 37.0119 3.24427 37.0119 1.55529C37.0119 0.986122 37.1694 0.456659 37.4407 0H33.8933C34.1634 0.455335 34.3222 0.986122 34.3222 1.55529C34.3222 3.24427 32.9535 4.61291 31.2646 4.61291C29.5756 4.61291 28.2069 3.24427 28.2069 1.55529C28.2069 0.986122 28.3645 0.456659 28.6358 0H25.0884C25.3584 0.455335 25.5173 0.986122 25.5173 1.55529C25.5173 3.24427 24.1486 4.61291 22.4597 4.61291C20.7707 4.61291 19.402 3.24427 19.402 1.55529C19.402 0.986122 19.5595 0.456659 19.8309 0H16.2835C16.5535 0.455335 16.7124 0.986122 16.7124 1.55529C16.7124 3.24427 15.3437 4.61291 13.6548 4.61291C11.9658 4.61291 10.5971 3.24427 10.5971 1.55529C10.5971 0.986122 10.7546 0.456659 11.026 0H7.47862C7.74865 0.455335 7.90747 0.986122 7.90747 1.55529C7.90747 3.24427 6.53882 4.61291 4.84985 4.61291C3.16087 4.61291 1.79222 3.24427 1.79222 1.55529C1.79222 0.986122 1.94975 0.456659 2.22109 0H0V63.2399H52.6825V0H51.5032Z" fill="white"/>
</mask>
<g mask="url(#mask19_1138_3480)">
<path d="M64.6217 15.2429C64.6243 15.4335 49.2991 15.7406 30.3974 15.9299C11.4891 16.1192 -3.83475 16.1178 -3.8374 15.9272C-3.83873 15.7366 11.4825 15.4295 30.3908 15.2403C49.2925 15.051 64.6204 15.0523 64.6217 15.2429Z" fill="#E0E0E0"/>
</g>
<mask id="mask20_1138_3480" style="mask-type:luminance" maskUnits="userSpaceOnUse" x="0" y="0" width="53" height="64">
<path d="M51.5032 0C51.7732 0.455335 51.932 0.986122 51.932 1.55529C51.932 3.24427 50.5634 4.61291 48.8744 4.61291C47.1854 4.61291 45.8168 3.24427 45.8168 1.55529C45.8168 0.986122 45.9743 0.456659 46.2456 0H42.6982C42.9683 0.455335 43.1271 0.986122 43.1271 1.55529C43.1271 3.24427 41.7585 4.61291 40.0695 4.61291C38.3805 4.61291 37.0119 3.24427 37.0119 1.55529C37.0119 0.986122 37.1694 0.456659 37.4407 0H33.8933C34.1634 0.455335 34.3222 0.986122 34.3222 1.55529C34.3222 3.24427 32.9535 4.61291 31.2646 4.61291C29.5756 4.61291 28.2069 3.24427 28.2069 1.55529C28.2069 0.986122 28.3645 0.456659 28.6358 0H25.0884C25.3584 0.455335 25.5173 0.986122 25.5173 1.55529C25.5173 3.24427 24.1486 4.61291 22.4597 4.61291C20.7707 4.61291 19.402 3.24427 19.402 1.55529C19.402 0.986122 19.5595 0.456659 19.8309 0H16.2835C16.5535 0.455335 16.7124 0.986122 16.7124 1.55529C16.7124 3.24427 15.3437 4.61291 13.6548 4.61291C11.9658 4.61291 10.5971 3.24427 10.5971 1.55529C10.5971 0.986122 10.7546 0.456659 11.026 0H7.47862C7.74865 0.455335 7.90747 0.986122 7.90747 1.55529C7.90747 3.24427 6.53882 4.61291 4.84985 4.61291C3.16087 4.61291 1.79222 3.24427 1.79222 1.55529C1.79222 0.986122 1.94975 0.456659 2.22109 0H0V63.2399H52.6825V0H51.5032Z" fill="white"/>
</mask>
<g mask="url(#mask20_1138_3480)">
<path d="M64.5387 6.78783C64.54 6.97843 49.2161 7.28552 30.3144 7.4748C11.4061 7.66408 -3.91776 7.66276 -3.92041 7.47215C-3.92173 7.28155 11.3995 6.97446 30.3078 6.78518C49.2082 6.5959 64.536 6.59722 64.5387 6.78783Z" fill="#E0E0E0"/>
</g>
<mask id="mask21_1138_3480" style="mask-type:luminance" maskUnits="userSpaceOnUse" x="0" y="0" width="53" height="64">
<path d="M51.5032 0C51.7732 0.455335 51.932 0.986122 51.932 1.55529C51.932 3.24427 50.5634 4.61291 48.8744 4.61291C47.1854 4.61291 45.8168 3.24427 45.8168 1.55529C45.8168 0.986122 45.9743 0.456659 46.2456 0H42.6982C42.9683 0.455335 43.1271 0.986122 43.1271 1.55529C43.1271 3.24427 41.7585 4.61291 40.0695 4.61291C38.3805 4.61291 37.0119 3.24427 37.0119 1.55529C37.0119 0.986122 37.1694 0.456659 37.4407 0H33.8933C34.1634 0.455335 34.3222 0.986122 34.3222 1.55529C34.3222 3.24427 32.9535 4.61291 31.2646 4.61291C29.5756 4.61291 28.2069 3.24427 28.2069 1.55529C28.2069 0.986122 28.3645 0.456659 28.6358 0H25.0884C25.3584 0.455335 25.5173 0.986122 25.5173 1.55529C25.5173 3.24427 24.1486 4.61291 22.4597 4.61291C20.7707 4.61291 19.402 3.24427 19.402 1.55529C19.402 0.986122 19.5595 0.456659 19.8309 0H16.2835C16.5535 0.455335 16.7124 0.986122 16.7124 1.55529C16.7124 3.24427 15.3437 4.61291 13.6548 4.61291C11.9658 4.61291 10.5971 3.24427 10.5971 1.55529C10.5971 0.986122 10.7546 0.456659 11.026 0H7.47862C7.74865 0.455335 7.90747 0.986122 7.90747 1.55529C7.90747 3.24427 6.53882 4.61291 4.84985 4.61291C3.16087 4.61291 1.79222 3.24427 1.79222 1.55529C1.79222 0.986122 1.94975 0.456659 2.22109 0H0V63.2399H52.6825V0H51.5032Z" fill="white"/>
</mask>
<g mask="url(#mask21_1138_3480)">
<path d="M64.5387 3.40013C64.54 3.59074 49.2161 3.89784 30.3144 4.08712C11.4061 4.2764 -3.91776 4.27506 -3.92041 4.08446C-3.92173 3.89385 11.3995 3.58677 30.3078 3.39749C49.2082 3.2082 64.536 3.20953 64.5387 3.40013Z" fill="#E0E0E0"/>
</g>
<mask id="mask22_1138_3480" style="mask-type:luminance" maskUnits="userSpaceOnUse" x="0" y="0" width="53" height="64">
<path d="M51.5032 0C51.7732 0.455335 51.932 0.986122 51.932 1.55529C51.932 3.24427 50.5634 4.61291 48.8744 4.61291C47.1854 4.61291 45.8168 3.24427 45.8168 1.55529C45.8168 0.986122 45.9743 0.456659 46.2456 0H42.6982C42.9683 0.455335 43.1271 0.986122 43.1271 1.55529C43.1271 3.24427 41.7585 4.61291 40.0695 4.61291C38.3805 4.61291 37.0119 3.24427 37.0119 1.55529C37.0119 0.986122 37.1694 0.456659 37.4407 0H33.8933C34.1634 0.455335 34.3222 0.986122 34.3222 1.55529C34.3222 3.24427 32.9535 4.61291 31.2646 4.61291C29.5756 4.61291 28.2069 3.24427 28.2069 1.55529C28.2069 0.986122 28.3645 0.456659 28.6358 0H25.0884C25.3584 0.455335 25.5173 0.986122 25.5173 1.55529C25.5173 3.24427 24.1486 4.61291 22.4597 4.61291C20.7707 4.61291 19.402 3.24427 19.402 1.55529C19.402 0.986122 19.5595 0.456659 19.8309 0H16.2835C16.5535 0.455335 16.7124 0.986122 16.7124 1.55529C16.7124 3.24427 15.3437 4.61291 13.6548 4.61291C11.9658 4.61291 10.5971 3.24427 10.5971 1.55529C10.5971 0.986122 10.7546 0.456659 11.026 0H7.47862C7.74865 0.455335 7.90747 0.986122 7.90747 1.55529C7.90747 3.24427 6.53882 4.61291 4.84985 4.61291C3.16087 4.61291 1.79222 3.24427 1.79222 1.55529C1.79222 0.986122 1.94975 0.456659 2.22109 0H0V63.2399H52.6825V0H51.5032Z" fill="white"/>
</mask>
<g mask="url(#mask22_1138_3480)">
<path d="M64.5387 11.1077C64.54 11.2983 49.2161 11.6054 30.3144 11.7946C11.4061 11.9839 -3.91776 11.9826 -3.92041 11.792C-3.92173 11.6014 11.3995 11.2943 30.3078 11.105C49.2082 10.9157 64.536 10.917 64.5387 11.1077Z" fill="#E0E0E0"/>
</g>
<mask id="mask23_1138_3480" style="mask-type:luminance" maskUnits="userSpaceOnUse" x="0" y="0" width="53" height="64">
<path d="M51.5032 0C51.7732 0.455335 51.932 0.986122 51.932 1.55529C51.932 3.24427 50.5634 4.61291 48.8744 4.61291C47.1854 4.61291 45.8168 3.24427 45.8168 1.55529C45.8168 0.986122 45.9743 0.456659 46.2456 0H42.6982C42.9683 0.455335 43.1271 0.986122 43.1271 1.55529C43.1271 3.24427 41.7585 4.61291 40.0695 4.61291C38.3805 4.61291 37.0119 3.24427 37.0119 1.55529C37.0119 0.986122 37.1694 0.456659 37.4407 0H33.8933C34.1634 0.455335 34.3222 0.986122 34.3222 1.55529C34.3222 3.24427 32.9535 4.61291 31.2646 4.61291C29.5756 4.61291 28.2069 3.24427 28.2069 1.55529C28.2069 0.986122 28.3645 0.456659 28.6358 0H25.0884C25.3584 0.455335 25.5173 0.986122 25.5173 1.55529C25.5173 3.24427 24.1486 4.61291 22.4597 4.61291C20.7707 4.61291 19.402 3.24427 19.402 1.55529C19.402 0.986122 19.5595 0.456659 19.8309 0H16.2835C16.5535 0.455335 16.7124 0.986122 16.7124 1.55529C16.7124 3.24427 15.3437 4.61291 13.6548 4.61291C11.9658 4.61291 10.5971 3.24427 10.5971 1.55529C10.5971 0.986122 10.7546 0.456659 11.026 0H7.47862C7.74865 0.455335 7.90747 0.986122 7.90747 1.55529C7.90747 3.24427 6.53882 4.61291 4.84985 4.61291C3.16087 4.61291 1.79222 3.24427 1.79222 1.55529C1.79222 0.986122 1.94975 0.456659 2.22109 0H0V63.2399H52.6825V0H51.5032Z" fill="white"/>
</mask>
<g mask="url(#mask23_1138_3480)">
<path d="M64.5387 19.4963C64.54 19.6869 49.2161 19.994 30.3144 20.1833C11.4061 20.3726 -3.91776 20.3712 -3.92041 20.1806C-3.92173 19.99 11.3995 19.6829 30.3078 19.4937C49.2082 19.3057 64.536 19.307 64.5387 19.4963Z" fill="#E0E0E0"/>
</g>
<mask id="mask24_1138_3480" style="mask-type:luminance" maskUnits="userSpaceOnUse" x="0" y="0" width="53" height="64">
<path d="M51.5032 0C51.7732 0.455335 51.932 0.986122 51.932 1.55529C51.932 3.24427 50.5634 4.61291 48.8744 4.61291C47.1854 4.61291 45.8168 3.24427 45.8168 1.55529C45.8168 0.986122 45.9743 0.456659 46.2456 0H42.6982C42.9683 0.455335 43.1271 0.986122 43.1271 1.55529C43.1271 3.24427 41.7585 4.61291 40.0695 4.61291C38.3805 4.61291 37.0119 3.24427 37.0119 1.55529C37.0119 0.986122 37.1694 0.456659 37.4407 0H33.8933C34.1634 0.455335 34.3222 0.986122 34.3222 1.55529C34.3222 3.24427 32.9535 4.61291 31.2646 4.61291C29.5756 4.61291 28.2069 3.24427 28.2069 1.55529C28.2069 0.986122 28.3645 0.456659 28.6358 0H25.0884C25.3584 0.455335 25.5173 0.986122 25.5173 1.55529C25.5173 3.24427 24.1486 4.61291 22.4597 4.61291C20.7707 4.61291 19.402 3.24427 19.402 1.55529C19.402 0.986122 19.5595 0.456659 19.8309 0H16.2835C16.5535 0.455335 16.7124 0.986122 16.7124 1.55529C16.7124 3.24427 15.3437 4.61291 13.6548 4.61291C11.9658 4.61291 10.5971 3.24427 10.5971 1.55529C10.5971 0.986122 10.7546 0.456659 11.026 0H7.47862C7.74865 0.455335 7.90747 0.986122 7.90747 1.55529C7.90747 3.24427 6.53882 4.61291 4.84985 4.61291C3.16087 4.61291 1.79222 3.24427 1.79222 1.55529C1.79222 0.986122 1.94975 0.456659 2.22109 0H0V63.2399H52.6825V0H51.5032Z" fill="white"/>
</mask>
<g mask="url(#mask24_1138_3480)">
<path d="M64.5387 27.8855C64.54 28.0761 49.2161 28.3832 30.3144 28.5725C11.4061 28.7617 -3.91776 28.7604 -3.92041 28.5698C-3.92173 28.3792 11.3995 28.0721 30.3078 27.8828C49.2082 27.6936 64.536 27.6949 64.5387 27.8855Z" fill="#E0E0E0"/>
</g>
<mask id="mask25_1138_3480" style="mask-type:luminance" maskUnits="userSpaceOnUse" x="0" y="0" width="53" height="64">
<path d="M51.5032 0C51.7732 0.455335 51.932 0.986122 51.932 1.55529C51.932 3.24427 50.5634 4.61291 48.8744 4.61291C47.1854 4.61291 45.8168 3.24427 45.8168 1.55529C45.8168 0.986122 45.9743 0.456659 46.2456 0H42.6982C42.9683 0.455335 43.1271 0.986122 43.1271 1.55529C43.1271 3.24427 41.7585 4.61291 40.0695 4.61291C38.3805 4.61291 37.0119 3.24427 37.0119 1.55529C37.0119 0.986122 37.1694 0.456659 37.4407 0H33.8933C34.1634 0.455335 34.3222 0.986122 34.3222 1.55529C34.3222 3.24427 32.9535 4.61291 31.2646 4.61291C29.5756 4.61291 28.2069 3.24427 28.2069 1.55529C28.2069 0.986122 28.3645 0.456659 28.6358 0H25.0884C25.3584 0.455335 25.5173 0.986122 25.5173 1.55529C25.5173 3.24427 24.1486 4.61291 22.4597 4.61291C20.7707 4.61291 19.402 3.24427 19.402 1.55529C19.402 0.986122 19.5595 0.456659 19.8309 0H16.2835C16.5535 0.455335 16.7124 0.986122 16.7124 1.55529C16.7124 3.24427 15.3437 4.61291 13.6548 4.61291C11.9658 4.61291 10.5971 3.24427 10.5971 1.55529C10.5971 0.986122 10.7546 0.456659 11.026 0H7.47862C7.74865 0.455335 7.90747 0.986122 7.90747 1.55529C7.90747 3.24427 6.53882 4.61291 4.84985 4.61291C3.16087 4.61291 1.79222 3.24427 1.79222 1.55529C1.79222 0.986122 1.94975 0.456659 2.22109 0H0V63.2399H52.6825V0H51.5032Z" fill="white"/>
</mask>
<g mask="url(#mask25_1138_3480)">
<path d="M64.5387 36.2732C64.54 36.4638 49.2161 36.7709 30.3144 36.9601C11.4061 37.1494 -3.91776 37.1481 -3.92041 36.9575C-3.92173 36.7669 11.3995 36.4598 30.3078 36.2705C49.2082 36.0826 64.536 36.0826 64.5387 36.2732Z" fill="#E0E0E0"/>
</g>
<mask id="mask26_1138_3480" style="mask-type:luminance" maskUnits="userSpaceOnUse" x="0" y="0" width="53" height="64">
<path d="M51.5032 0C51.7732 0.455335 51.932 0.986122 51.932 1.55529C51.932 3.24427 50.5634 4.61291 48.8744 4.61291C47.1854 4.61291 45.8168 3.24427 45.8168 1.55529C45.8168 0.986122 45.9743 0.456659 46.2456 0H42.6982C42.9683 0.455335 43.1271 0.986122 43.1271 1.55529C43.1271 3.24427 41.7585 4.61291 40.0695 4.61291C38.3805 4.61291 37.0119 3.24427 37.0119 1.55529C37.0119 0.986122 37.1694 0.456659 37.4407 0H33.8933C34.1634 0.455335 34.3222 0.986122 34.3222 1.55529C34.3222 3.24427 32.9535 4.61291 31.2646 4.61291C29.5756 4.61291 28.2069 3.24427 28.2069 1.55529C28.2069 0.986122 28.3645 0.456659 28.6358 0H25.0884C25.3584 0.455335 25.5173 0.986122 25.5173 1.55529C25.5173 3.24427 24.1486 4.61291 22.4597 4.61291C20.7707 4.61291 19.402 3.24427 19.402 1.55529C19.402 0.986122 19.5595 0.456659 19.8309 0H16.2835C16.5535 0.455335 16.7124 0.986122 16.7124 1.55529C16.7124 3.24427 15.3437 4.61291 13.6548 4.61291C11.9658 4.61291 10.5971 3.24427 10.5971 1.55529C10.5971 0.986122 10.7546 0.456659 11.026 0H7.47862C7.74865 0.455335 7.90747 0.986122 7.90747 1.55529C7.90747 3.24427 6.53882 4.61291 4.84985 4.61291C3.16087 4.61291 1.79222 3.24427 1.79222 1.55529C1.79222 0.986122 1.94975 0.456659 2.22109 0H0V63.2399H52.6825V0H51.5032Z" fill="white"/>
</mask>
<g mask="url(#mask26_1138_3480)">
<path d="M64.5387 44.6623C64.54 44.8529 49.2161 45.16 30.3144 45.3493C11.4061 45.5386 -3.91776 45.5373 -3.92041 45.3467C-3.92173 45.1561 11.3995 44.849 30.3078 44.6597C49.2082 44.4704 64.536 44.4717 64.5387 44.6623Z" fill="#E0E0E0"/>
</g>
<mask id="mask27_1138_3480" style="mask-type:luminance" maskUnits="userSpaceOnUse" x="0" y="0" width="53" height="64">
<path d="M51.5032 0C51.7732 0.455335 51.932 0.986122 51.932 1.55529C51.932 3.24427 50.5634 4.61291 48.8744 4.61291C47.1854 4.61291 45.8168 3.24427 45.8168 1.55529C45.8168 0.986122 45.9743 0.456659 46.2456 0H42.6982C42.9683 0.455335 43.1271 0.986122 43.1271 1.55529C43.1271 3.24427 41.7585 4.61291 40.0695 4.61291C38.3805 4.61291 37.0119 3.24427 37.0119 1.55529C37.0119 0.986122 37.1694 0.456659 37.4407 0H33.8933C34.1634 0.455335 34.3222 0.986122 34.3222 1.55529C34.3222 3.24427 32.9535 4.61291 31.2646 4.61291C29.5756 4.61291 28.2069 3.24427 28.2069 1.55529C28.2069 0.986122 28.3645 0.456659 28.6358 0H25.0884C25.3584 0.455335 25.5173 0.986122 25.5173 1.55529C25.5173 3.24427 24.1486 4.61291 22.4597 4.61291C20.7707 4.61291 19.402 3.24427 19.402 1.55529C19.402 0.986122 19.5595 0.456659 19.8309 0H16.2835C16.5535 0.455335 16.7124 0.986122 16.7124 1.55529C16.7124 3.24427 15.3437 4.61291 13.6548 4.61291C11.9658 4.61291 10.5971 3.24427 10.5971 1.55529C10.5971 0.986122 10.7546 0.456659 11.026 0H7.47862C7.74865 0.455335 7.90747 0.986122 7.90747 1.55529C7.90747 3.24427 6.53882 4.61291 4.84985 4.61291C3.16087 4.61291 1.79222 3.24427 1.79222 1.55529C1.79222 0.986122 1.94975 0.456659 2.22109 0H0V63.2399H52.6825V0H51.5032Z" fill="white"/>
</mask>
<g mask="url(#mask27_1138_3480)">
<path d="M64.5387 53.05C64.54 53.2406 49.2161 53.5477 30.3144 53.737C11.4061 53.9263 -3.91776 53.925 -3.92041 53.7344C-3.92173 53.5438 11.3995 53.2367 30.3078 53.0474C49.2082 52.8581 64.536 52.8594 64.5387 53.05Z" fill="#E0E0E0"/>
</g>
<path d="M22.7163 9.16023C23.0975 11.0319 23.9116 12.9313 25.4841 14.0154C27.271 15.2477 29.8852 15.1061 31.5278 13.6884C33.1718 12.2708 33.6946 9.70557 32.7376 7.75716C31.7807 5.80875 29.4312 4.65454 27.3041 5.0887" fill="#E0E0E0"/>
<path d="M22.6189 9.14458C22.7354 11.318 24.5911 12.9858 26.7646 12.8693C28.938 12.7528 30.6058 10.8971 30.4893 8.72365C30.3728 6.55022 28.5171 4.88243 26.3437 4.99891C24.1702 5.11407 22.5038 6.97115 22.6189 9.14458Z" fill="#93B4FD"/>
<path d="M20.355 7.68759C20.4252 8.99139 21.5384 9.99207 22.8422 9.92192C24.146 9.85176 25.1466 8.73858 25.0778 7.43478C25.0077 6.13099 23.8945 5.13032 22.5894 5.19915C21.2842 5.26798 20.2849 6.3838 20.355 7.68759Z" fill="#93B4FD"/>
<path d="M22.5575 9.8754C22.5787 9.77216 22.9308 9.79466 23.406 9.61068C23.8719 9.4386 24.4834 9.00577 24.7257 8.31615C24.9666 7.62653 24.7892 6.89587 24.5549 6.45245C24.3246 5.99447 24.0546 5.76812 24.1102 5.67944C24.1446 5.60399 24.5509 5.69268 24.9599 6.18243C25.3583 6.64836 25.7078 7.57227 25.3742 8.54779C25.0248 9.52465 24.1353 10.0064 23.5238 10.0845C22.8884 10.1719 22.5311 9.95085 22.5575 9.8754Z" fill="#263238"/>
<path d="M24.5391 6.11432C24.6331 5.94622 25.2235 6.10638 25.8694 5.94887C26.5206 5.80856 26.9813 5.40749 27.1388 5.51735C27.3109 5.59545 26.9799 6.39096 26.0243 6.62127C25.0633 6.83041 24.4174 6.25992 24.5391 6.11432Z" fill="#263238"/>
<path d="M25.148 12.1012C24.9561 12.1131 24.7761 11.3799 24.1672 10.816C23.5702 10.2389 22.8277 10.1012 22.829 9.90926C22.7853 9.72395 23.7873 9.5254 24.6411 10.3143C25.4763 11.123 25.3347 12.1343 25.148 12.1012Z" fill="#263238"/>
<path d="M46.7708 22.5922C46.7708 22.7828 38.3643 22.9363 27.9962 22.9363C17.6254 22.9363 9.22021 22.7815 9.22021 22.5922C9.22021 22.4029 17.6254 22.248 27.9962 22.248C38.3643 22.248 46.7708 22.4016 46.7708 22.5922Z" fill="#263238"/>
<path d="M46.7708 26.495C46.7708 26.6856 38.3643 26.8392 27.9962 26.8392C17.6254 26.8392 9.22021 26.6843 9.22021 26.495C9.22021 26.3057 17.6254 26.1509 27.9962 26.1509C38.3643 26.1496 46.7708 26.3044 46.7708 26.495Z" fill="#263238"/>
<path d="M46.7708 30.3988C46.7708 30.5894 38.3643 30.743 27.9962 30.743C17.6254 30.743 9.22021 30.5894 9.22021 30.3988C9.22021 30.2082 17.6254 30.0547 27.9962 30.0547C38.3643 30.0534 46.7708 30.2082 46.7708 30.3988Z" fill="#263238"/>
<path d="M46.7708 34.3007C46.7708 34.4913 38.3643 34.6448 27.9962 34.6448C17.6254 34.6448 9.22021 34.49 9.22021 34.3007C9.22021 34.1101 17.6254 33.9565 27.9962 33.9565C38.3643 33.9565 46.7708 34.1114 46.7708 34.3007Z" fill="#263238"/>
<path d="M46.7708 38.2045C46.7708 38.3951 38.3643 38.5486 27.9962 38.5486C17.6254 38.5486 9.22021 38.3938 9.22021 38.2045C9.22021 38.0139 17.6254 37.8604 27.9962 37.8604C38.3643 37.8604 46.7708 38.0139 46.7708 38.2045Z" fill="#263238"/>
<path d="M46.7708 42.1074C46.7708 42.298 38.3643 42.4515 27.9962 42.4515C17.6254 42.4515 9.22021 42.2966 9.22021 42.1074C9.22021 41.9167 17.6254 41.7632 27.9962 41.7632C38.3643 41.7619 46.7708 41.9167 46.7708 42.1074Z" fill="#263238"/>
<path d="M46.7708 46.0097C46.7708 46.2003 38.3643 46.3538 27.9962 46.3538C17.6254 46.3538 9.22021 46.199 9.22021 46.0097C9.22021 45.8191 17.6254 45.6655 27.9962 45.6655C38.3643 45.6655 46.7708 45.8204 46.7708 46.0097Z" fill="#263238"/>
</svg>
